<svg xmlns="http://www.w3.org/2000/svg" fill="none" viewBox="0 0 57 66">
  <path fill="#E8F7F7" d="M56.6 32.4A24.1 24.1 0 0 0 32.4 8.2a24.1 24.1 0 0 0-18.4 40s11.6 13 15.1 16.5a4.6 4.6 0 0 0 6.4 0c4.3-4 15.2-16.5 15.2-16.5a24 24 0 0 0 5.9-15.8Z"/>
  <path stroke="#248794" stroke-linecap="round" stroke-width="3" d="M44.6 42c3.6-4.3 5.8-9.7 5.8-15.8a24.1 24.1 0 0 0-37-20.6M5 14.6A24 24 0 0 0 7.8 42S19.3 55 22.9 58.5a4.6 4.6 0 0 0 6.4 0c2.3-2.2 5-5.2 8.4-9"/>
  <path stroke="#248794" stroke-linecap="round" stroke-linejoin="round" stroke-miterlimit="10" stroke-width="3" d="M20.7 20.6 18.8 22c-.7.6-1.2 1.6-1.2 2.5V34c0 .6.5 1 1 1h15.1c.6 0 1-.4 1-1v-9.4c0-1-.4-1.9-1.2-2.5l-7-5.4a.5.5 0 0 0-.6 0l-2.4 1.7-2.8 2.2ZM26.2 29.8V34"/>
</svg>
