<svg xmlns="http://www.w3.org/2000/svg" fill="none" viewBox="0 0 40 40">
  <rect width="38" height="38" x="1" y="1" fill="#E8F7F7" rx="19"/>
  <rect width="38" height="38" x="1" y="1" stroke="#248794" stroke-width="2" rx="19"/>
  <path fill="#248794" d="M14.3 30c-.4 0-.7-.2-1-.4-.2-.2-.3-.6-.3-1V11.3c0-.4.1-.7.3-1 .3-.2.6-.3 1-.3H21c2.1 0 3.7.5 4.9 1.6 1.1 1 1.7 2.5 1.7 4.4 0 1.9-.6 3.3-1.7 4.4-1.2 1-2.8 1.6-5 1.6h-5.3v6.6c0 .4-.1.8-.3 1-.2.2-.6.3-1 .3Zm1.3-10.1h5c1.5 0 2.6-.4 3.3-1 .8-.7 1.1-1.7 1.1-3 0-1.2-.3-2.2-1-2.8-.8-.6-1.9-1-3.4-1h-5V20Z"/>
</svg>
