<svg xmlns="http://www.w3.org/2000/svg" fill="none" viewBox="0 0 40 40">
  <rect width="38" height="38" x="1" y="1" fill="#E8F7F7" rx="19"/>
  <rect width="38" height="38" x="1" y="1" stroke="#248794" stroke-width="2" rx="19"/>
  <path fill="#248794" d="M16 25h8a2 2 0 0 0 2-2v-2H14v2a2 2 0 0 0 2 2Zm8.8 2a2 2 0 0 1-1.7 3H17a2 2 0 0 1-1.7-3 4 4 0 0 1-3.2-4v-9a4 4 0 0 1 4-4h8a4 4 0 0 1 4 4v9a4 4 0 0 1-3.2 4Zm1.2-8v-5a2 2 0 0 0-2-2h-8a2 2 0 0 0-2 2v5h12Zm-2-6a1 1 0 0 1 1 1v3a1 1 0 0 1-2 0v-3a1 1 0 0 1 1-1Zm-8 11a1 1 0 1 1 0-2 1 1 0 0 1 0 2Zm8 0a1 1 0 1 1 0-2 1 1 0 0 1 0 2Zm-7.1 4H23l-.6-1h-5l-.6 1Z"/>
</svg>
